<?xml version="1.0" standalone="no"?>
<!DOCTYPE svg PUBLIC "-//W3C//DTD SVG 20010904//EN"
 "http://www.w3.org/TR/2001/REC-SVG-20010904/DTD/svg10.dtd">
<svg version="1.0" xmlns="http://www.w3.org/2000/svg"
 width="16.000000pt" height="16.000000pt" viewBox="0 0 16.000000 16.000000"
 preserveAspectRatio="xMidYMid meet">
<metadata>
Created by potrace 1.11, written by Peter Selinger 2001-2013
</metadata>
<g transform="translate(0.000000,16.000000) scale(0.003125,-0.003125)"
fill="#000000" stroke="none">
<path d="M1225 3896 l-25 -25 0 -911 0 -911 25 -25 24 -24 1315 2 c1247 3
1316 4 1333 21 17 17 18 70 21 931 2 889 2 914 -17 937 l-19 24 -1316 3 -1317
2 -24 -24z"/>
<path d="M963 1920 c2 -83 7 -102 32 -148 33 -60 84 -110 147 -144 43 -23 44
-23 536 -26 l492 -3 0 58 c0 32 -3 68 -6 81 l-6 22 -469 0 c-455 0 -470 1
-526 22 -75 28 -152 103 -182 178 l-21 55 3 -95z"/>
<path d="M4136 1959 c-25 -71 -105 -150 -181 -178 -54 -20 -74 -21 -524 -21
l-469 0 -6 -22 c-3 -13 -6 -49 -6 -81 l0 -58 493 3 492 3 54 30 c114 63 174
171 169 302 l-3 74 -19 -52z"/>
<path d="M1606 1014 c-24 -63 12 -158 74 -193 38 -21 41 -21 882 -21 l845 0
34 23 c51 34 79 82 79 136 0 25 -5 53 -10 61 -8 12 -13 11 -37 -11 -15 -15
-38 -32 -50 -38 -15 -8 -261 -11 -863 -11 -900 0 -868 -2 -914 49 -23 25 -32
26 -40 5z"/>
</g>
</svg>
